<svg viewBox="0 0 250 250" width="250" height="250" xmlns="http://www.w3.org/2000/svg">
<path d="M 109 151 L 109 152 L 108 153 L 108 154 L 106 156 L 106 157 L 105 158 L 105 159 L 103 161 L 103 162 L 102 163 L 102 164 L 100 166 L 100 167 L 98 169 L 98 170 L 95 173 L 95 174 L 92 177 L 92 178 L 82 188 L 81 188 L 79 190 L 78 190 L 76 192 L 75 192 L 74 193 L 72 193 L 71 194 L 68 194 L 67 195 L 62 195 L 61 196 L 57 196 L 56 195 L 53 195 L 52 194 L 51 194 L 50 193 L 49 193 L 45 189 L 45 187 L 47 185 L 52 185 L 55 182 L 55 178 L 53 176 L 47 176 L 46 177 L 45 177 L 41 181 L 41 188 L 42 189 L 42 190 L 43 191 L 43 192 L 45 194 L 46 194 L 47 195 L 48 195 L 49 196 L 50 196 L 51 197 L 56 197 L 57 198 L 61 198 L 62 197 L 68 197 L 69 196 L 72 196 L 73 195 L 75 195 L 76 194 L 77 194 L 78 193 L 79 193 L 80 192 L 81 192 L 82 191 L 83 191 L 84 190 L 85 190 L 87 188 L 88 188 L 90 186 L 91 186 L 96 181 L 97 181 L 105 173 L 105 172 L 110 167 L 110 151 Z M 129 95 L 128 96 L 127 96 L 126 97 L 125 97 L 122 100 L 122 101 L 121 102 L 121 103 L 120 104 L 120 108 L 121 109 L 121 111 L 125 115 L 126 115 L 126 112 L 124 110 L 124 104 L 125 103 L 125 102 L 127 100 L 127 99 L 128 98 L 129 98 L 130 97 L 131 97 L 133 95 Z M 124 48 L 124 49 L 123 50 L 123 59 L 122 60 L 122 62 L 121 63 L 121 65 L 120 66 L 120 68 L 119 69 L 119 71 L 118 72 L 118 73 L 117 74 L 117 76 L 116 77 L 116 78 L 115 79 L 115 80 L 114 81 L 114 82 L 113 83 L 113 84 L 112 85 L 112 86 L 111 87 L 111 88 L 110 89 L 110 90 L 108 92 L 108 94 L 110 96 L 110 97 L 112 99 L 113 99 L 114 98 L 114 97 L 116 95 L 116 94 L 117 93 L 117 92 L 118 91 L 118 90 L 119 89 L 119 88 L 120 87 L 120 86 L 121 85 L 121 83 L 122 82 L 122 80 L 123 79 L 123 77 L 124 76 L 124 72 L 125 71 L 125 66 L 126 65 L 126 53 L 125 52 L 125 49 Z M 36 37 L 36 38 L 39 38 L 40 39 L 43 39 L 44 40 L 46 40 L 47 41 L 48 41 L 50 43 L 51 43 L 57 49 L 57 50 L 60 53 L 60 54 L 62 56 L 62 57 L 63 58 L 63 59 L 65 61 L 65 62 L 67 64 L 69 64 L 80 53 L 81 53 L 82 52 L 82 43 L 86 39 L 88 39 L 89 38 L 90 38 L 90 37 Z M 212 16 L 211 17 L 209 17 L 208 18 L 207 18 L 206 19 L 205 19 L 203 21 L 202 21 L 200 23 L 199 23 L 197 25 L 196 25 L 195 26 L 192 26 L 191 25 L 187 25 L 186 24 L 179 24 L 178 23 L 162 23 L 161 24 L 153 24 L 152 25 L 147 25 L 146 26 L 141 26 L 140 27 L 137 27 L 136 28 L 134 28 L 133 29 L 130 29 L 129 30 L 127 30 L 126 31 L 124 31 L 123 32 L 122 32 L 121 33 L 119 33 L 118 34 L 117 34 L 116 35 L 114 35 L 113 36 L 112 36 L 111 37 L 110 37 L 109 38 L 108 38 L 107 39 L 106 39 L 105 40 L 104 40 L 101 43 L 100 43 L 98 45 L 97 45 L 96 46 L 95 46 L 93 48 L 92 48 L 91 49 L 90 49 L 87 52 L 86 52 L 84 54 L 83 54 L 79 58 L 78 58 L 68 68 L 68 69 L 63 74 L 63 75 L 60 78 L 60 79 L 59 80 L 59 81 L 58 82 L 58 83 L 57 84 L 57 85 L 56 86 L 56 87 L 55 88 L 55 90 L 54 91 L 54 94 L 53 95 L 53 102 L 52 103 L 53 104 L 53 110 L 54 111 L 54 113 L 55 114 L 55 115 L 56 116 L 56 117 L 61 122 L 62 122 L 63 123 L 64 123 L 65 124 L 67 124 L 68 125 L 75 125 L 76 124 L 79 124 L 80 123 L 83 123 L 84 122 L 85 122 L 86 121 L 88 121 L 89 120 L 90 120 L 91 119 L 92 119 L 94 117 L 95 117 L 95 115 L 93 113 L 92 113 L 91 114 L 90 114 L 87 117 L 86 117 L 84 119 L 83 119 L 82 120 L 81 120 L 80 121 L 79 121 L 78 122 L 75 122 L 74 123 L 69 123 L 68 122 L 66 122 L 65 121 L 64 121 L 63 120 L 62 120 L 59 117 L 59 116 L 57 114 L 57 112 L 56 111 L 56 109 L 55 108 L 55 98 L 56 97 L 56 93 L 57 92 L 57 90 L 58 89 L 58 88 L 59 87 L 59 86 L 60 85 L 60 84 L 61 83 L 61 82 L 62 81 L 62 80 L 64 78 L 64 77 L 66 75 L 66 74 L 81 59 L 82 59 L 84 57 L 84 56 L 88 52 L 89 52 L 92 49 L 93 49 L 95 47 L 96 47 L 98 45 L 99 45 L 100 44 L 101 44 L 102 43 L 103 43 L 104 42 L 105 42 L 106 41 L 107 41 L 108 40 L 109 40 L 110 39 L 111 39 L 112 38 L 113 38 L 114 37 L 115 37 L 116 36 L 117 36 L 118 35 L 120 35 L 121 34 L 122 34 L 123 33 L 125 33 L 126 32 L 128 32 L 129 31 L 131 31 L 132 30 L 135 30 L 136 29 L 139 29 L 140 28 L 143 28 L 144 27 L 149 27 L 150 26 L 156 26 L 157 25 L 180 25 L 181 26 L 185 26 L 186 27 L 188 27 L 190 29 L 190 30 L 175 45 L 175 46 L 169 52 L 169 53 L 164 58 L 164 59 L 161 62 L 161 63 L 158 66 L 158 67 L 155 70 L 155 71 L 152 74 L 152 75 L 150 77 L 150 78 L 149 79 L 149 80 L 147 82 L 147 83 L 145 85 L 145 86 L 144 87 L 144 88 L 142 90 L 142 91 L 141 92 L 141 93 L 140 94 L 140 95 L 138 97 L 138 98 L 137 99 L 137 100 L 136 101 L 136 102 L 135 103 L 135 104 L 133 106 L 133 107 L 132 108 L 132 110 L 131 111 L 131 112 L 130 113 L 130 114 L 129 115 L 129 116 L 128 117 L 128 118 L 126 120 L 126 121 L 125 122 L 123 122 L 122 121 L 122 120 L 120 118 L 120 117 L 118 115 L 118 114 L 116 112 L 116 111 L 115 110 L 115 109 L 113 107 L 113 106 L 111 104 L 111 103 L 110 102 L 110 101 L 108 99 L 108 98 L 106 96 L 106 95 L 104 93 L 104 92 L 103 91 L 103 90 L 101 88 L 101 87 L 100 86 L 100 85 L 98 83 L 98 82 L 97 81 L 97 80 L 96 79 L 96 78 L 94 76 L 94 75 L 93 74 L 93 73 L 92 72 L 92 71 L 91 70 L 91 69 L 90 68 L 90 67 L 89 66 L 89 65 L 88 64 L 88 63 L 87 62 L 87 61 L 86 60 L 84 60 L 72 72 L 73 73 L 73 74 L 74 75 L 74 76 L 75 77 L 75 78 L 77 80 L 77 81 L 79 83 L 79 84 L 80 85 L 80 86 L 82 88 L 82 89 L 84 91 L 84 92 L 85 93 L 85 94 L 87 96 L 87 97 L 89 99 L 89 100 L 90 101 L 90 102 L 92 104 L 92 105 L 93 106 L 93 107 L 95 109 L 95 111 L 97 113 L 97 114 L 100 117 L 100 118 L 102 120 L 102 121 L 103 122 L 103 123 L 105 125 L 105 126 L 106 127 L 106 128 L 108 130 L 108 131 L 110 133 L 110 134 L 111 135 L 111 136 L 113 138 L 113 197 L 112 198 L 112 201 L 111 202 L 111 203 L 105 209 L 103 209 L 102 210 L 101 210 L 101 211 L 142 211 L 142 210 L 141 210 L 140 209 L 139 209 L 138 208 L 137 208 L 133 204 L 133 203 L 132 202 L 132 201 L 131 200 L 131 197 L 130 196 L 130 138 L 131 137 L 131 136 L 132 135 L 132 134 L 134 132 L 134 131 L 135 130 L 135 129 L 136 128 L 136 127 L 138 125 L 138 124 L 139 123 L 139 122 L 141 120 L 141 119 L 142 118 L 142 117 L 143 116 L 143 115 L 144 114 L 144 113 L 145 112 L 145 111 L 147 109 L 147 108 L 148 107 L 148 106 L 149 105 L 149 103 L 150 102 L 150 101 L 151 100 L 151 99 L 152 98 L 152 97 L 153 96 L 153 95 L 154 94 L 154 93 L 155 92 L 155 91 L 156 90 L 156 89 L 157 88 L 157 87 L 158 86 L 158 85 L 159 84 L 159 83 L 160 82 L 160 81 L 162 79 L 162 78 L 163 77 L 163 76 L 164 75 L 164 74 L 166 72 L 166 71 L 167 70 L 167 69 L 168 68 L 168 67 L 170 65 L 170 64 L 171 63 L 171 62 L 173 60 L 173 59 L 175 57 L 175 56 L 177 54 L 177 53 L 179 51 L 179 50 L 181 48 L 181 47 L 184 44 L 184 43 L 188 39 L 188 38 L 195 31 L 197 31 L 203 37 L 203 38 L 205 40 L 205 41 L 206 42 L 206 44 L 207 45 L 207 49 L 208 50 L 208 64 L 207 65 L 207 70 L 206 71 L 206 73 L 205 74 L 205 76 L 204 77 L 204 79 L 203 80 L 203 81 L 202 82 L 202 83 L 201 84 L 201 85 L 200 86 L 200 87 L 198 89 L 198 90 L 194 94 L 194 95 L 187 102 L 186 102 L 183 105 L 182 105 L 180 107 L 179 107 L 177 109 L 176 109 L 175 110 L 174 110 L 173 111 L 172 111 L 171 112 L 170 112 L 169 113 L 168 113 L 167 114 L 165 114 L 164 115 L 161 115 L 160 116 L 156 116 L 155 117 L 146 117 L 145 118 L 145 119 L 155 119 L 156 118 L 161 118 L 162 117 L 166 117 L 167 116 L 169 116 L 170 115 L 172 115 L 173 114 L 175 114 L 176 113 L 177 113 L 178 112 L 179 112 L 180 111 L 182 111 L 184 109 L 185 109 L 186 108 L 187 108 L 188 107 L 189 107 L 191 105 L 192 105 L 194 103 L 195 103 L 199 99 L 200 99 L 208 91 L 208 90 L 211 87 L 211 86 L 214 83 L 214 82 L 215 81 L 215 80 L 216 79 L 216 78 L 217 77 L 217 76 L 218 75 L 218 74 L 219 73 L 219 71 L 220 70 L 220 67 L 221 66 L 221 53 L 220 52 L 220 49 L 219 48 L 219 46 L 218 45 L 218 44 L 217 43 L 217 42 L 215 40 L 215 39 L 210 34 L 209 34 L 207 32 L 206 32 L 204 30 L 203 30 L 202 29 L 201 29 L 200 28 L 200 26 L 202 24 L 203 24 L 205 22 L 206 22 L 208 20 L 209 20 L 210 19 L 212 19 L 213 18 L 214 18 L 215 17 L 215 16 Z "/>
</svg>
